<svg width="1171" height="331" viewBox="0 0 1171 331" fill="none" xmlns="http://www.w3.org/2000/svg">
<path d="M0.917206 14.0884V228.05C0.917206 232.397 0.917206 236.243 0.917206 238.483C0.917206 238.272 2.7338 235.875 5.47184 234.557C8.20989 233.24 11.8694 233.003 15.5026 237.166C22.7952 242.013 30.0879 229.736 30.0879 235.848C34.353 248.047 39.3815 237.824 44.5153 244.753C49.6491 248.31 54.862 242.988 59.5482 243.12C64.2345 241.302 68.3942 241.724 71.3692 241.486C74.3442 240.88 76.1608 245.517 76.1608 242.461C80.4258 244.226 84.217 244.411 87.4816 244.859C90.7462 245.28 93.5105 239.932 95.722 248.574C100.171 253.975 102.462 247.151 102.462 251.709C102.462 250.971 107.411 248.943 112.493 253.843C117.6 257.663 122.866 261.642 123.524 253.026C124.182 247.889 129.447 247.441 134.555 246.282C139.662 243.41 144.586 245.017 144.586 242.488C144.586 244.648 149.193 240.96 153.8 246.44C156.117 256.346 158.407 254.554 160.145 257.742C161.883 256.372 163.015 258.533 163.015 250.392C163.015 250.444 167.28 253.896 171.571 255.002C175.836 260.983 180.128 269.651 180.128 259.613C180.128 259.797 182.76 265.251 186.709 259.692C190.658 264.856 195.924 249.074 201.189 256.978C206.455 255.397 211.72 256.899 215.669 257.637C219.619 259.139 222.251 247.625 222.251 254.344C222.251 252.868 226.859 251.946 231.466 253.026C236.073 259.639 240.68 248.547 240.68 251.709C243.313 255.477 246.683 251.366 250.264 257.242C253.844 263.776 257.635 259.402 261.084 259.112C267.982 259.27 273.59 259.191 273.59 259.613C273.59 259.323 279.856 250.471 286.095 255.002C292.361 248.547 298.601 250.286 298.601 250.392C298.601 249.891 302.866 249.285 307.157 253.685C311.422 255.187 315.713 258.744 315.713 256.978C317.688 262.037 320.479 265.594 323.559 267.227C326.639 268.834 330.009 268.492 333.142 265.725C339.408 271.074 344.673 260.746 344.673 263.591C344.673 263.96 348.939 267.965 353.23 259.639C357.495 257.373 361.786 264.935 361.786 255.687C365.735 258.322 369.684 254.08 373.397 258.296C377.109 259.639 380.558 272.576 383.506 267.701C389.43 262.959 393.379 275.842 393.379 272.813C393.379 274.92 396.012 267.28 399.961 271.732C403.91 269.941 409.176 276.396 414.441 270.178C419.706 267.016 424.972 270.362 428.921 264.777C432.87 265.725 435.503 265.383 435.503 267.543C435.503 274.025 440.452 271.574 445.376 266.885C450.325 268.07 455.248 270.073 455.248 266.226C455.248 267.122 461.514 269.598 467.754 271.495C474.02 270.6 480.259 280.848 480.259 276.765C480.259 276.659 485.525 284.748 490.79 277.423C496.056 279.294 501.321 284.669 501.321 278.082C501.321 280.822 505.929 287.593 510.536 274.789C515.143 269.019 519.75 273.577 519.75 271.495C519.75 277.898 525.016 262.801 530.281 266.885C535.547 258.585 540.812 268.465 540.812 262.274C544.761 266.727 548.553 262.063 552.001 269.467C555.45 274.341 558.583 271.495 561.216 274.973C566.481 278.872 569.772 272.523 569.772 280.743C569.772 278.424 576.67 280.559 583.594 282.192C590.492 284.774 597.416 277.792 597.416 283.641C597.416 282.403 597.416 278.556 597.416 273.629V14.0884H0.917206ZM582.962 73.2103H20.8733V17.2236H582.962V73.2103Z" fill="white"/>
<path d="M0.917206 0.915039V274.876C0.917206 279.224 0.917206 283.07 0.917206 285.31C0.917206 285.099 2.7338 282.701 5.47184 281.384C8.20989 280.067 11.8694 279.829 15.5026 283.992C22.7952 288.84 30.0879 276.562 30.0879 282.675C34.353 294.873 39.3815 284.651 44.5153 291.58C49.6491 295.137 54.862 289.815 59.5482 289.947C64.2345 288.129 68.3942 288.55 71.3692 288.313C74.3442 287.707 76.1608 292.344 76.1608 289.288C80.4258 291.053 84.217 291.238 87.4816 291.685C90.7462 292.107 93.5105 286.759 95.722 295.4C100.171 300.801 102.462 293.978 102.462 298.536C102.462 297.798 107.411 295.769 112.493 300.67C117.6 304.49 122.866 308.468 123.524 299.853C124.182 294.715 129.447 294.267 134.555 293.108C139.662 290.236 144.586 291.844 144.586 289.314C144.586 291.475 149.193 287.786 153.8 293.266C156.117 303.173 158.407 301.381 160.145 304.569C161.883 303.199 163.015 305.359 163.015 297.218C163.015 297.271 167.28 300.722 171.571 301.829C175.836 307.81 180.128 316.478 180.128 306.44C180.128 306.624 182.76 312.078 186.709 306.519C190.658 311.683 195.924 295.901 201.189 303.805C206.455 302.224 211.72 303.726 215.669 304.464C219.619 305.965 222.251 294.452 222.251 301.17C222.251 299.695 226.859 298.773 231.466 299.853C236.073 306.466 240.68 295.374 240.68 298.536C243.313 302.303 246.683 298.193 250.264 304.068C253.844 310.602 257.635 306.229 261.084 305.939C267.982 306.097 273.59 306.018 273.59 306.44C273.59 306.15 279.856 297.297 286.095 301.829C292.361 295.374 298.601 297.113 298.601 297.218C298.601 296.718 302.866 296.112 307.157 300.512C311.422 302.013 315.713 305.57 315.713 303.805C317.688 308.863 320.479 312.42 323.559 314.054C326.639 315.661 330.009 315.318 333.142 312.552C339.408 317.9 344.673 307.572 344.673 310.418C344.673 310.787 348.939 314.791 353.23 306.466C357.495 304.2 361.786 311.762 361.786 302.514C365.735 305.149 369.685 300.907 373.397 305.122C377.109 306.466 380.558 319.402 383.506 314.528C389.43 309.786 393.379 322.669 393.379 319.639C393.379 321.747 396.012 314.106 399.961 318.559C403.91 316.767 409.176 323.222 414.441 317.005C419.706 313.843 424.972 317.189 428.921 311.604C432.87 312.552 435.503 312.21 435.503 314.37C435.503 320.851 440.452 318.401 445.376 313.711C450.325 314.897 455.248 316.899 455.248 313.053C455.248 313.948 461.514 316.425 467.754 318.322C474.02 317.426 480.259 327.675 480.259 323.591C480.259 323.486 485.525 331.574 490.79 324.25C496.056 326.121 501.321 331.495 501.321 324.909C501.321 327.649 505.929 334.42 510.536 321.615C515.143 315.845 519.75 320.403 519.75 318.322C519.75 324.724 525.016 309.628 530.281 313.711C535.547 305.412 540.812 315.292 540.812 309.101C544.761 313.553 548.553 308.89 552.001 316.293C555.45 321.167 558.583 318.322 561.216 321.8C566.481 325.699 569.772 319.349 569.772 327.57C569.772 325.251 576.67 327.385 583.594 329.019C590.492 331.601 597.416 324.619 597.416 330.468C597.416 329.229 597.416 325.383 597.416 320.456V0.915039H0.917206ZM38.4337 45.9678C31.6412 45.9678 26.1388 40.4614 26.1388 33.664C26.1388 26.8665 31.6412 21.36 38.4337 21.36C45.2262 21.36 50.7286 26.8665 50.7286 33.664C50.7286 40.4614 45.2262 45.9678 38.4337 45.9678ZM85.9809 45.9678C79.1885 45.9678 73.686 40.4614 73.686 33.664C73.686 26.8665 79.1885 21.36 85.9809 21.36C92.7734 21.36 98.2758 26.8665 98.2758 33.664C98.2758 40.4614 92.7734 45.9678 85.9809 45.9678ZM133.528 45.9678C126.736 45.9678 121.233 40.4614 121.233 33.664C121.233 26.8665 126.736 21.36 133.528 21.36C140.321 21.36 145.823 26.8665 145.823 33.664C145.823 40.4614 140.321 45.9678 133.528 45.9678ZM181.075 45.9678C174.283 45.9678 168.78 40.4614 168.78 33.664C168.78 26.8665 174.283 21.36 181.075 21.36C187.868 21.36 193.37 26.8665 193.37 33.664C193.37 40.4614 187.868 45.9678 181.075 45.9678ZM228.623 45.9678C221.83 45.9678 216.328 40.4614 216.328 33.664C216.328 26.8665 221.83 21.36 228.623 21.36C235.415 21.36 240.917 26.8665 240.917 33.664C240.917 40.4614 235.415 45.9678 228.623 45.9678ZM276.17 45.9678C269.377 45.9678 263.875 40.4614 263.875 33.664C263.875 26.8665 269.377 21.36 276.17 21.36C282.962 21.36 288.465 26.8665 288.465 33.664C288.465 40.4614 282.962 45.9678 276.17 45.9678ZM323.717 45.9678C316.924 45.9678 311.422 40.4614 311.422 33.664C311.422 26.8665 316.924 21.36 323.717 21.36C330.509 21.36 336.012 26.8665 336.012 33.664C336.012 40.4614 330.509 45.9678 323.717 45.9678ZM371.264 45.9678C364.472 45.9678 358.969 40.4614 358.969 33.664C358.969 26.8665 364.472 21.36 371.264 21.36C378.057 21.36 383.559 26.8665 383.559 33.664C383.559 40.4614 378.057 45.9678 371.264 45.9678ZM418.811 45.9678C412.019 45.9678 406.517 40.4614 406.517 33.664C406.517 26.8665 412.019 21.36 418.811 21.36C425.604 21.36 431.106 26.8665 431.106 33.664C431.106 40.4614 425.604 45.9678 418.811 45.9678ZM466.359 45.9678C459.566 45.9678 454.064 40.4614 454.064 33.664C454.064 26.8665 459.566 21.36 466.359 21.36C473.151 21.36 478.653 26.8665 478.653 33.664C478.653 40.4614 473.151 45.9678 466.359 45.9678ZM513.932 45.9678C507.14 45.9678 501.637 40.4614 501.637 33.664C501.637 26.8665 507.14 21.36 513.932 21.36C520.725 21.36 526.227 26.8665 526.227 33.664C526.201 40.4614 520.698 45.9678 513.932 45.9678ZM561.479 45.9678C554.687 45.9678 549.184 40.4614 549.184 33.664C549.184 26.8665 554.687 21.36 561.479 21.36C568.272 21.36 573.774 26.8665 573.774 33.664C573.748 40.4614 568.245 45.9678 561.479 45.9678Z" fill="url(#paint0_linear)"/>
<path d="M1170.08 0.915039V274.876C1170.08 279.224 1170.08 283.07 1170.08 285.31C1170.08 285.099 1168.27 282.701 1165.53 281.384C1162.79 280.067 1159.13 279.829 1155.5 283.992C1148.2 288.84 1140.91 276.562 1140.91 282.675C1136.65 294.873 1131.62 284.651 1126.48 291.58C1121.35 295.137 1116.14 289.815 1111.45 289.947C1106.76 288.129 1102.61 288.55 1099.63 288.313C1096.66 287.707 1094.84 292.344 1094.84 289.288C1090.57 291.053 1086.78 291.238 1083.52 291.685C1080.25 292.107 1077.49 286.759 1075.28 295.4C1070.83 300.801 1068.54 293.978 1068.54 298.536C1068.54 297.798 1063.59 295.769 1058.51 300.67C1053.4 304.49 1048.13 308.468 1047.48 299.853C1046.82 294.715 1041.55 294.267 1036.44 293.108C1031.34 290.236 1026.41 291.844 1026.41 289.314C1026.41 291.475 1021.81 287.786 1017.2 293.266C1014.88 303.173 1012.59 301.381 1010.85 304.569C1009.12 303.199 1007.98 305.359 1007.98 297.218C1007.98 297.271 1003.72 300.722 999.428 301.829C995.163 307.81 990.872 316.478 990.872 306.44C990.872 306.624 988.239 312.078 984.29 306.519C980.341 311.683 975.075 295.901 969.81 303.805C964.544 302.224 959.279 303.726 955.33 304.464C951.381 305.965 948.748 294.452 948.748 301.17C948.748 299.695 944.141 298.773 939.533 299.853C934.926 306.466 930.319 295.374 930.319 298.536C927.686 302.303 924.316 298.193 920.736 304.068C917.155 310.602 913.364 306.229 909.915 305.939C903.017 306.097 897.41 306.018 897.41 306.44C897.41 306.15 891.144 297.297 884.904 301.829C878.638 295.374 872.399 297.113 872.399 297.218C872.399 296.718 868.134 296.112 863.842 300.512C859.577 302.013 855.286 305.57 855.286 303.805C853.311 308.863 850.521 312.42 847.44 314.054C844.36 315.661 840.99 315.318 837.857 312.552C831.591 317.9 826.326 307.572 826.326 310.418C826.326 310.787 822.061 314.791 817.769 306.466C813.504 304.2 809.213 311.762 809.213 302.514C805.264 305.149 801.315 300.907 797.603 305.122C793.891 306.466 790.442 319.402 787.493 314.528C781.569 309.786 777.62 322.669 777.62 319.639C777.62 321.747 774.987 314.106 771.038 318.559C767.089 316.767 761.824 323.222 756.558 317.005C751.293 313.843 746.027 317.189 742.078 311.604C738.129 312.552 735.496 312.21 735.496 314.37C735.496 320.851 730.547 318.401 725.624 313.711C720.674 314.897 715.751 316.899 715.751 313.053C715.751 313.948 709.485 316.425 703.245 318.322C696.98 317.426 690.74 327.675 690.74 323.591C690.74 323.486 685.474 331.574 680.209 324.25C674.944 326.121 669.678 331.495 669.678 324.909C669.678 327.649 665.071 334.42 660.463 321.615C655.856 315.845 651.249 320.403 651.249 318.322C651.249 324.724 645.983 309.628 640.718 313.711C635.453 305.412 630.187 315.292 630.187 309.101C626.238 313.553 622.447 308.89 618.998 316.293C615.549 321.167 612.416 318.322 609.783 321.8C604.518 325.699 601.227 319.349 601.227 327.57C601.227 325.251 594.329 327.385 587.405 329.019C580.507 331.601 573.583 324.619 573.583 330.468C573.583 329.229 573.583 325.383 573.583 320.456V0.915039H1170.08ZM1132.57 45.9678C1139.36 45.9678 1144.86 40.4614 1144.86 33.664C1144.86 26.8665 1139.36 21.36 1132.57 21.36C1125.77 21.36 1120.27 26.8665 1120.27 33.664C1120.27 40.4614 1125.77 45.9678 1132.57 45.9678ZM1085.02 45.9678C1091.81 45.9678 1097.31 40.4614 1097.31 33.664C1097.31 26.8665 1091.81 21.36 1085.02 21.36C1078.23 21.36 1072.72 26.8665 1072.72 33.664C1072.72 40.4614 1078.23 45.9678 1085.02 45.9678ZM1037.47 45.9678C1044.26 45.9678 1049.77 40.4614 1049.77 33.664C1049.77 26.8665 1044.26 21.36 1037.47 21.36C1030.68 21.36 1025.18 26.8665 1025.18 33.664C1025.18 40.4614 1030.68 45.9678 1037.47 45.9678ZM989.924 45.9678C996.716 45.9678 1002.22 40.4614 1002.22 33.664C1002.22 26.8665 996.716 21.36 989.924 21.36C983.131 21.36 977.629 26.8665 977.629 33.664C977.629 40.4614 983.131 45.9678 989.924 45.9678ZM942.377 45.9678C949.169 45.9678 954.672 40.4614 954.672 33.664C954.672 26.8665 949.169 21.36 942.377 21.36C935.584 21.36 930.082 26.8665 930.082 33.664C930.082 40.4614 935.584 45.9678 942.377 45.9678ZM894.83 45.9678C901.622 45.9678 907.124 40.4614 907.124 33.664C907.124 26.8665 901.622 21.36 894.83 21.36C888.037 21.36 882.535 26.8665 882.535 33.664C882.535 40.4614 888.037 45.9678 894.83 45.9678ZM847.282 45.9678C854.075 45.9678 859.577 40.4614 859.577 33.664C859.577 26.8665 854.075 21.36 847.282 21.36C840.49 21.36 834.987 26.8665 834.987 33.664C834.987 40.4614 840.49 45.9678 847.282 45.9678ZM799.735 45.9678C806.528 45.9678 812.03 40.4614 812.03 33.664C812.03 26.8665 806.528 21.36 799.735 21.36C792.943 21.36 787.44 26.8665 787.44 33.664C787.44 40.4614 792.943 45.9678 799.735 45.9678ZM752.188 45.9678C758.98 45.9678 764.483 40.4614 764.483 33.664C764.483 26.8665 758.98 21.36 752.188 21.36C745.396 21.36 739.893 26.8665 739.893 33.664C739.893 40.4614 745.396 45.9678 752.188 45.9678ZM704.641 45.9678C711.433 45.9678 716.936 40.4614 716.936 33.664C716.936 26.8665 711.433 21.36 704.641 21.36C697.848 21.36 692.346 26.8665 692.346 33.664C692.346 40.4614 697.848 45.9678 704.641 45.9678ZM657.067 45.9678C663.86 45.9678 669.362 40.4614 669.362 33.664C669.362 26.8665 663.86 21.36 657.067 21.36C650.275 21.36 644.772 26.8665 644.772 33.664C644.799 40.4614 650.301 45.9678 657.067 45.9678ZM609.52 45.9678C616.312 45.9678 621.815 40.4614 621.815 33.664C621.815 26.8665 616.312 21.36 609.52 21.36C602.728 21.36 597.225 26.8665 597.225 33.664C597.251 40.4614 602.754 45.9678 609.52 45.9678Z" fill="url(#paint1_linear)"/>
<defs>
<linearGradient id="paint0_linear" x1="299.173" y1="270.376" x2="299.173" y2="0.924258" gradientUnits="userSpaceOnUse">
<stop stop-color="#F2F2F2"/>
<stop offset="1" stop-color="white"/>
</linearGradient>
<linearGradient id="paint1_linear" x1="871.826" y1="270.376" x2="871.826" y2="0.924258" gradientUnits="userSpaceOnUse">
<stop stop-color="#F2F2F2"/>
<stop offset="1" stop-color="white"/>
</linearGradient>
</defs>
</svg>
