<svg width="16" height="16" viewBox="0 0 16 16" fill="none" xmlns="http://www.w3.org/2000/svg">
<g clip-path="url(#clip0)">
<path d="M8.941 0.434968C8.65138 0.280543 8.32821 0.199768 8 0.199768C7.67179 0.199768 7.34862 0.280543 7.059 0.434968L1.059 3.63497C0.739081 3.80555 0.471548 4.05989 0.285014 4.37077C0.0984807 4.68166 -3.62467e-05 5.03741 1.00039e-08 5.39997V5.71297L6.709 9.64596L8 8.92797L9.291 9.64496L16 5.71497V5.39997C16 5.03741 15.9015 4.68166 15.715 4.37077C15.5285 4.05989 15.2609 3.80555 14.941 3.63497L8.941 0.434968ZM16 6.87296L10.307 10.21L16 13.372V6.87196V6.87296ZM15.941 14.484L8 10.072L0.059 14.484C0.167004 14.917 0.416741 15.3015 0.768469 15.5762C1.1202 15.8509 1.5537 16.0001 2 16H14C14.4463 16.0001 14.8798 15.8509 15.2315 15.5762C15.5833 15.3015 15.833 14.917 15.941 14.484ZM1.00039e-08 13.373L5.693 10.21L1.00039e-08 6.87296V13.373Z" fill="black"/>
</g>
<defs>
<clipPath id="clip0">
<rect width="16" height="16" fill="white"/>
</clipPath>
</defs>
</svg>
